<?xml version="1.0" encoding="utf-8" ?>
<svg xmlns="http://www.w3.org/2000/svg" xmlns:xlink="http://www.w3.org/1999/xlink" width="26.0684" height="26.0771" viewBox="0 0 26.0684 26.0771">
	<path transform="matrix(1 0 0 1 0 0)" d="M2.70703 26.0771C1.96289 26.0771 1.32422 25.8105 0.791016 25.2773C0.263672 24.7441 0 24.1055 0 23.3613L0 3.28711C0 2.54297 0.263672 1.9043 0.791016 1.37109C1.32422 0.837891 1.96289 0.571289 2.70703 0.571289L15.75 0.571289L15.75 2.82129L2.70703 2.82129C2.57227 2.82129 2.46094 2.86523 2.37305 2.95312C2.29102 3.04102 2.25 3.15234 2.25 3.28711L2.25 23.3613C2.25 23.4961 2.29102 23.6074 2.37305 23.6953C2.46094 23.7832 2.57227 23.8271 2.70703 23.8271L22.7812 23.8271C22.916 23.8271 23.0273 23.7832 23.1152 23.6953C23.2031 23.6074 23.2471 23.4961 23.2471 23.3613L23.2471 10.3271L25.4971 10.3271L25.4971 23.3613C25.4971 24.1055 25.2305 24.7441 24.6973 25.2773C24.1699 25.8105 23.5312 26.0771 22.7812 26.0771L2.70703 26.0771ZM20.8213 8.24414L20.8213 5.24707L17.8242 5.24707L17.8242 2.99707L20.8213 2.99707L20.8213 0L23.0713 0L23.0713 2.99707L26.0684 2.99707L26.0684 5.24707L23.0713 5.24707L23.0713 8.24414L20.8213 8.24414ZM4.86914 20.4521L20.7334 20.4521L15.8027 13.8691L11.5928 19.3535L8.5957 15.5127L4.86914 20.4521ZM2.25 2.82129L2.25 7.32129L2.25 10.3271L2.25 23.3613L2.25 23.6953L2.25 23.8271L2.25 23.6953L2.25 23.3613L2.25 3.28711L2.25 2.95312L2.25 2.82129Z" fill-rule="nonzero" fill="rgb(110, 111, 118)"/>
</svg>
