<?xml version="1.0" encoding="UTF-8"?>
<svg id="Layer_1" data-name="Layer 1" xmlns="http://www.w3.org/2000/svg" viewBox="0 0 50 50">
  <defs>
    <style>
      .cls-1 {
        fill: #3d4152;
      }
    </style>
  </defs>
  <path class="cls-1" d="m41.44,4l3.02,5.75,1.39,36.25H4.16l1.39-36.25,3.02-5.75h32.88m2.42-4H6.14L1.58,8.7,0,50h50l-1.58-41.3L43.86,0h0Z"/>
  <path class="cls-1" d="m25.79,17.99c2.44,0,5.16,3.46,5.16,8.42s-2.72,8.42-5.16,8.42-5.16-3.46-5.16-8.42,2.72-8.42,5.16-8.42m0-4c-5.06,0-9.16,5.56-9.16,12.42s4.1,12.42,9.16,12.42,9.16-5.56,9.16-12.42-4.1-12.42-9.16-12.42h0Z"/>
</svg>