<?xml version="1.0" encoding="utf-8"?>
<!-- Generator: Adobe Illustrator 27.5.0, SVG Export Plug-In . SVG Version: 6.00 Build 0)  -->
<svg version="1.1" id="Layer_1" xmlns="http://www.w3.org/2000/svg" xmlns:xlink="http://www.w3.org/1999/xlink" x="0px" y="0px"
	 viewBox="0 0 20 20" style="enable-background:new 0 0 20 20;" xml:space="preserve">
<style type="text/css">
	.st0{fill:none;stroke:#000000;stroke-width:1.8;stroke-linecap:round;stroke-miterlimit:10;}
</style>
<g>
	<line class="st0" x1="-21.8" y1="2.5" x2="-4.6" y2="19.7"/>
	<line class="st0" x1="-21.8" y1="19.7" x2="-4.6" y2="2.6"/>
</g>
<path d="M11.4,10l8.4-8.4c0.4-0.4,0.4-1,0-1.3c-0.4-0.4-1-0.4-1.3,0L10,8.7L1.6,0.3c-0.4-0.4-1-0.4-1.3,0s-0.4,1,0,1.3L8.7,10
	l-8.4,8.4c-0.4,0.4-0.4,1,0,1.3C0.5,19.9,0.7,20,0.9,20s0.5-0.1,0.7-0.3l8.4-8.4l8.3,8.3c0.2,0.2,0.4,0.3,0.7,0.3
	c0.2,0,0.5-0.1,0.7-0.3c0.4-0.4,0.4-1,0-1.3L11.4,10z"/>
</svg>
