<?xml version="1.0" encoding="UTF-8"?>
<svg id="Layer_1" data-name="Layer 1" xmlns="http://www.w3.org/2000/svg" viewBox="0 0 20 20">
  <defs>
    <style>
      .cls-1 {
        fill: none;
        stroke: #3d4152;
        stroke-miterlimit: 10;
        stroke-width: 1.5px;
      }

      .cls-2 {
        fill: #3d4152;
      }
    </style>
  </defs>
  <path class="cls-2" d="m10,1.8c4.52,0,8.2,3.68,8.2,8.2s-3.68,8.2-8.2,8.2S1.8,14.52,1.8,10,5.48,1.8,10,1.8m0-1.8C4.48,0,0,4.48,0,10s4.48,10,10,10,10-4.48,10-10S15.52,0,10,0h0Z"/>
  <path class="cls-2" d="m10,7.27c1.5,0,2.73,1.22,2.73,2.73s-1.22,2.73-2.73,2.73-2.73-1.22-2.73-2.73,1.22-2.73,2.73-2.73m0-1.8c-2.5,0-4.53,2.03-4.53,4.53s2.03,4.53,4.53,4.53,4.53-2.03,4.53-4.53-2.03-4.53-4.53-4.53h0Z"/>
  <g>
    <path class="cls-1" d="m18.38,8.32h-3.45c-.64,0-1.16.38-1.16.84v1.69c0,.47.52.84,1.16.84h3.45"/>
    <path class="cls-1" d="m1.56,11.7h3.44c.67,0,1.21-.37,1.21-.82v-1.74c0-.45-.54-.82-1.21-.82H1.56"/>
  </g>
</svg>