<?xml version="1.0" encoding="utf-8"?>
<!-- Generator: Adobe Illustrator 27.5.0, SVG Export Plug-In . SVG Version: 6.00 Build 0)  -->
<svg version="1.1" id="Layer_1" xmlns="http://www.w3.org/2000/svg" xmlns:xlink="http://www.w3.org/1999/xlink" x="0px" y="0px"
	 viewBox="0 0 20 20" style="enable-background:new 0 0 20 20;" xml:space="preserve">
<style type="text/css">
	.st0{fill:#FFFFFF;}
	.st1{fill:#3F8867;}
	.st2{fill:#D24A54;}
</style>
<g>
	<g>
		<g>
			<path class="st0" d="M4.1,19.1c-1.8,0-3.2-1.4-3.2-3.2V4.1c0-1.8,1.4-3.2,3.2-3.2h11.8c1.8,0,3.2,1.4,3.2,3.2v11.8
				c0,1.8-1.4,3.2-3.2,3.2H4.1z"/>
			<path class="st2" d="M15.9,1.8c1.3,0,2.3,1,2.3,2.3v11.8c0,1.3-1,2.3-2.3,2.3H4.1c-1.3,0-2.3-1-2.3-2.3V4.1c0-1.3,1-2.3,2.3-2.3
				H15.9 M15.9,0H4.1C1.8,0,0,1.8,0,4.1v11.8C0,18.2,1.8,20,4.1,20h11.8c2.3,0,4.1-1.8,4.1-4.1V4.1C20,1.8,18.2,0,15.9,0L15.9,0z"/>
		</g>
	</g>
	<path class="st2" d="M9.4,4.6L4,13.8c-0.3,0.5,0.1,1.1,0.6,1.1h10.6c0.6,0,0.9-0.6,0.6-1.1l-5.3-9.2C10.4,4.1,9.6,4.1,9.4,4.6z"/>
</g>
</svg>
