<?xml version="1.0" encoding="utf-8"?>
<!-- Generator: Adobe Illustrator 27.5.0, SVG Export Plug-In . SVG Version: 6.00 Build 0)  -->
<svg version="1.1" id="Layer_1" xmlns="http://www.w3.org/2000/svg" xmlns:xlink="http://www.w3.org/1999/xlink" x="0px" y="0px"
	 viewBox="0 0 1708 2500" style="enable-background:new 0 0 1708 2500;" xml:space="preserve">
<style type="text/css">
	.st0{fill:#FFFFFF;}
</style>
<path class="st0" d="M855.7,2499.9c-1.6-1.1-3.4-2.7-5.3-4.3c-30.1-37.3-216.4-270.7-406.2-570c-57-95.3-93.9-169.7-86.8-189
	c18.6-50,349.5-77.4,451.3-32.1c31,13.8,30.2,31.9,30.2,42.6c0,45.8-2.2,168.7-2.2,168.7c0,25.4,20.6,46,46,45.9
	c25.5,0,46-20.7,45.9-46.2l-0.5-306.1h-0.1c0-26.6-29-33.2-34.4-34.3c-53.2-0.3-161.2-0.6-277.2-0.6c-255.9,0-313.1,10.5-356.5-18
	c-94.2-61.6-248.2-476.7-251.8-710.3c-5.1-329.5,190.1-614.7,465-756C588.1,32.6,717.7,0,854.8,0c435.1,0,793.5,328.4,841.1,751
	c0,0.3,0,0.8,0.1,1.1c8.8,102.2-554.2,123.8-665.6,94.1c-17.1-4.5-21.4-22.1-21.4-29.6c-0.1-77.6-0.6-296.3-0.6-296.3
	c-0.1-25.5-20.7-46-46.2-46c-25.4,0-46,20.7-46,46.2l1,402.7c0.8,25.4,22.1,32.2,28,33.4c63.3,0,211.4-0.1,349.3-0.1
	c186.4,0,264.7,21.6,316.9,61.2c34.6,26.4,48,77,36.3,142.7C1543.1,1745.3,880.8,2469.8,855.9,2500L855.7,2499.9z"/>
</svg>
