<?xml version="1.0" encoding="utf-8"?>
<!-- Generator: Adobe Illustrator 27.5.0, SVG Export Plug-In . SVG Version: 6.00 Build 0)  -->
<svg version="1.1" id="Layer_1" xmlns="http://www.w3.org/2000/svg" xmlns:xlink="http://www.w3.org/1999/xlink" x="0px" y="0px"
	 viewBox="0 0 20 20" style="enable-background:new 0 0 20 20;" xml:space="preserve">
<style type="text/css">
	.st0{fill:none;stroke:#2B2E40;stroke-width:1.4;stroke-miterlimit:10;}
	.st1{fill:#2B2E40;}
</style>
<g>
	<path class="st1" d="M17.5,20c-5.3,0-10.5,0-15.8,0c0,0-0.1,0-0.1,0c-0.5-0.1-0.8-0.3-1.1-0.7C0.2,19,0.1,18.7,0,18.4
		c0-3.8,0-7.5,0-11.3c0,0,0,0,0,0C0.1,6.1,0.9,5.4,2,5.5c0.4,0,0.8,0,1.2,0c0.1,0,0.3,0,0.4-0.1c1.9-1.1,3.7-2.2,5.6-3.2
		C10.4,1.4,11.6,0.5,13,0c0.2,0,0.3,0,0.5,0c0.8,0.1,1.2,0.6,1.6,1.3c0.7,1.3,1.5,2.7,2.3,4c0.1,0.1,0.1,0.2,0.3,0.2
		c0.3,0,0.6,0.2,0.8,0.4c0.5,0.4,0.7,0.9,0.7,1.5c0,0.8,0,1.7,0,2.5c0,0.1,0,0.2,0.1,0.2c0.2,0.1,0.4,0.3,0.5,0.5
		c0.1,0.1,0.2,0.3,0.2,0.5c0,1.1,0,2.1,0,3.2c0,0.1,0,0.1-0.1,0.2c-0.1,0.4-0.3,0.6-0.7,0.8c-0.1,0.1-0.2,0.1-0.2,0.2
		c0,0.8,0,1.7,0,2.5c0,0.6-0.2,1.2-0.7,1.6C18.1,19.8,17.8,19.9,17.5,20z M18.2,10c0-0.1,0-0.1,0-0.2c0-0.8,0-1.6,0-2.4
		c0-0.7-0.4-1-1-1c-5.1,0-10.1,0-15.2,0c-0.7,0-1,0.4-1,1c0,3.5,0,7.1,0,10.6c0,0.7,0.4,1,1,1c5.1,0,10.1,0,15.2,0c0.7,0,1-0.4,1-1
		c0-0.8,0-1.6,0-2.4c0-0.1,0-0.1,0-0.2c-0.1,0-0.2,0-0.3,0c-0.9,0-1.8,0-2.7,0c-1.6-0.1-2.8-1.7-2.4-3.3c0.3-1.3,1.4-2.1,2.7-2.1
		c0.8,0,1.7,0,2.5,0C18,10,18.1,10,18.2,10z M16.9,14.5C16.9,14.5,16.9,14.5,16.9,14.5c0.5,0,1,0,1.6,0c0.4,0,0.6-0.2,0.6-0.6
		c0-0.8,0-1.7,0-2.5c0-0.4-0.2-0.6-0.6-0.6c-1,0-2,0-2.9,0c-0.3,0-0.6,0.1-0.8,0.2c-0.8,0.3-1.2,1.2-1.1,2c0.1,0.8,0.8,1.4,1.7,1.4
		C15.9,14.6,16.4,14.5,16.9,14.5z M14,1.4c-0.2-0.5-0.8-0.6-1.3-0.3c-2.4,1.4-4.9,2.8-7.3,4.3c0,0-0.1,0.1-0.2,0.1
		c0.6,0,1.1,0,1.6,0c0.1,0,0.2,0,0.3-0.1c2.2-1.3,4.5-2.6,6.7-3.9C13.9,1.4,13.9,1.4,14,1.4z M8.9,5.4C8.9,5.4,8.9,5.4,8.9,5.4
		c0.1,0,0.1,0,0.2,0c0.4,0,0.9,0,1.3,0c0.1,0,0.3,0,0.4-0.1c1.3-0.8,2.7-1.5,4-2.3c0.1,0,0.1-0.1,0.2-0.1c-0.2-0.3-0.3-0.5-0.4-0.8
		C12.6,3.2,10.7,4.3,8.9,5.4z M16.4,5.5c-0.3-0.6-0.7-1.2-1-1.7c-1,0.6-1.9,1.1-2.9,1.7c0,0,0,0,0,0C13.8,5.5,15,5.5,16.4,5.5z"/>
	<path class="st1" d="M15.5,11.8c0.5,0,0.9,0.4,0.9,0.9c0,0.5-0.4,0.9-0.9,0.9c-0.5,0-0.9-0.4-0.9-0.9C14.5,12.2,15,11.8,15.5,11.8z
		"/>
</g>
</svg>
