<?xml version="1.0" encoding="utf-8"?>
<!-- Generator: Adobe Illustrator 27.5.0, SVG Export Plug-In . SVG Version: 6.00 Build 0)  -->
<svg version="1.1" id="Layer_1" xmlns="http://www.w3.org/2000/svg" xmlns:xlink="http://www.w3.org/1999/xlink" x="0px" y="0px"
	 viewBox="0 0 18 18" style="enable-background:new 0 0 18 18;" xml:space="preserve">
<style type="text/css">
	.st0{fill:#3D4152;}
</style>
<g>
	<g>
		<path class="st0" d="M15,7.1c0.4,0,0.8,0.3,0.8,0.8v7.2c0,0.4-0.3,0.8-0.8,0.8H3c-0.4,0-0.8-0.3-0.8-0.8V7.9
			c0-0.4,0.3-0.8,0.8-0.8L15,7.1 M15.1,5.3H2.9c-1.4,0-2.4,1.1-2.4,2.4V15c0,1.4,1.1,2.4,2.4,2.4h12.2c1.4,0,2.4-1.1,2.4-2.4V7.8
			C17.5,6.4,16.4,5.3,15.1,5.3L15.1,5.3z"/>
	</g>
	<path class="st0" d="M6.6,0.5h4.7c1,0,1.8,0.8,1.8,1.8v1.2H4.8V2.3C4.8,1.3,5.6,0.5,6.6,0.5z"/>
</g>
</svg>
