<?xml version="1.0" encoding="utf-8"?>
<!-- Generator: Adobe Illustrator 27.5.0, SVG Export Plug-In . SVG Version: 6.00 Build 0)  -->
<svg version="1.1" id="Layer_1" xmlns="http://www.w3.org/2000/svg" xmlns:xlink="http://www.w3.org/1999/xlink" x="0px" y="0px"
	 viewBox="0 0 40 40" style="enable-background:new 0 0 40 40;" xml:space="preserve">
<style type="text/css">
	.st0{fill:#696B79;}
</style>
<g>
	<path class="st0" d="M20,4c8.8,0,16,7.2,16,16s-7.2,16-16,16S4,28.8,4,20S11.2,4,20,4 M20,0C9,0,0,9,0,20s9,20,20,20s20-9,20-20
		S31,0,20,0L20,0z"/>
</g>
<g>
	<g>
		<path class="st0" d="M23.4,13.5c0.1,1.9-1.3,3.3-3.5,3.3c-1.9,0-3.3-1.5-3.3-3.3c0-1.9,1.4-3.4,3.4-3.4
			C22.1,10,23.4,11.5,23.4,13.5z"/>
	</g>
	<g>
		<rect x="17.3" y="19.4" class="st0" width="5.5" height="10.6"/>
	</g>
</g>
</svg>
