<?xml version="1.0" encoding="utf-8"?>
<!-- Generator: Adobe Illustrator 27.5.0, SVG Export Plug-In . SVG Version: 6.00 Build 0)  -->
<svg version="1.1" id="Layer_1" xmlns="http://www.w3.org/2000/svg" xmlns:xlink="http://www.w3.org/1999/xlink" x="0px" y="0px"
	 viewBox="0 0 20 20" style="enable-background:new 0 0 20 20;" xml:space="preserve">
<style type="text/css">
	.st0{fill:#3C4154;}
</style>
<g>
	<path class="st0" d="M10.2,20c-0.1,0-0.3,0-0.4,0c-0.4-0.1-0.8-0.3-1.1-0.5c-0.4-0.4-0.7-0.7-1.1-1.1c-0.2-0.2-0.4-0.2-0.6-0.2
		c-0.5,0.1-1,0.1-1.5,0.2c-1.1,0.2-1.9-0.4-2.1-1.5c-0.1-0.5-0.2-1-0.3-1.5c0-0.3-0.2-0.5-0.5-0.6c-0.4-0.2-0.9-0.5-1.3-0.7
		c-0.9-0.5-1.3-1.5-0.8-2.4c0.2-0.5,0.4-0.9,0.7-1.3c0.1-0.2,0.1-0.5,0-0.7c-0.1-0.5-0.3-1-0.5-1.4c-0.5-1-0.1-1.9,0.8-2.4
		c0.4-0.2,0.9-0.5,1.3-0.7C3,5,3.2,4.9,3.2,4.6c0.1-0.5,0.2-1,0.2-1.4c0.2-1.1,1-1.7,2.1-1.5c0.5,0,1,0,1.5,0.1c0.3,0,0.5,0,0.7-0.2
		C8,1.3,8.3,1.1,8.5,0.8C8.9,0.4,9.3,0.1,9.8,0c0.1,0,0.3,0,0.4,0c0.5,0.1,0.9,0.4,1.3,0.8c0.3,0.3,0.6,0.6,0.9,0.9
		c0.2,0.2,0.4,0.2,0.6,0.2c0.5-0.1,1-0.1,1.5-0.2c1.1-0.2,1.9,0.4,2.1,1.5c0.1,0.5,0.2,1,0.3,1.5c0,0.3,0.2,0.5,0.4,0.6
		c0.4,0.2,0.9,0.5,1.3,0.7s0.7,0.5,0.9,1c0.1,0.2,0.1,0.4,0.1,0.6v0.1c0,0.2-0.1,0.3-0.1,0.5c-0.2,0.5-0.5,1-0.7,1.6
		c-0.1,0.3-0.1,0.5,0,0.8c0.3,0.7,0.7,1.3,0.9,2v0.1v0.1c-0.1,0.6-0.3,1-0.8,1.3s-1,0.6-1.5,0.8C17.2,15,17,15.2,17,15.5
		c-0.1,0.5-0.2,1-0.2,1.4c-0.2,1.1-1,1.7-2,1.6c-0.5-0.1-1.1-0.1-1.6-0.2c-0.3,0-0.5,0-0.7,0.2c-0.3,0.3-0.6,0.5-0.9,0.8
		C11.1,19.6,10.7,19.9,10.2,20z M7.3,16.4c0.4,0,0.7,0.1,1.1,0.4c0.4,0.4,0.8,0.7,1.2,1.1c0.3,0.3,0.6,0.3,0.8,0
		c0.4-0.3,0.7-0.7,1-0.9c0.4-0.4,0.8-0.6,1.3-0.5c0.5,0.1,0.9,0.1,1.4,0.2c0.4,0.1,0.7-0.1,0.7-0.5c0.1-0.4,0.2-0.7,0.2-1.1
		c0.1-0.7,0.5-1.2,1.1-1.6c0.4-0.2,0.7-0.4,1-0.6c0.4-0.2,0.5-0.5,0.3-0.8s-0.4-0.8-0.6-1.2c-0.3-0.5-0.3-1,0-1.5
		c0.2-0.4,0.4-0.8,0.6-1.2c0.2-0.5,0.1-0.7-0.3-0.9c-0.4-0.2-0.7-0.5-1.2-0.7c-0.6-0.3-0.8-0.7-0.9-1.3c-0.1-0.5-0.2-0.9-0.3-1.4
		c-0.1-0.4-0.3-0.5-0.7-0.5c-0.5,0.1-0.9,0.1-1.3,0.2c-0.6,0.1-1.1-0.1-1.5-0.5c-0.3-0.3-0.7-0.7-0.9-0.9s-0.6-0.3-0.8,0
		c-0.4,0.4-0.7,0.7-1,1C8.2,3.4,7.8,3.6,7.2,3.6C6.7,3.5,6.3,3.4,5.8,3.3C5.4,3.3,5.1,3.4,5,3.9C5,4.3,4.9,4.7,4.8,5
		C4.8,5.8,4.5,6.3,3.7,6.6C3.3,6.8,3.1,7,2.7,7.2S2.2,7.7,2.4,7.9C2.6,8.3,2.8,8.8,3,9.2c0.3,0.6,0.3,1,0,1.6
		c-0.2,0.4-0.4,0.7-0.6,1.1c-0.2,0.5-0.2,0.7,0.3,0.9c0.4,0.2,0.7,0.4,1.1,0.6c0.6,0.3,0.8,0.7,0.9,1.3C4.8,15.2,4.9,15.6,5,16
		c0.1,0.4,0.3,0.6,0.7,0.5C6.3,16.6,6.8,16.5,7.3,16.4z"/>
	<path class="st0" d="M14.2,5.8L14.2,5.8c-0.3-0.3-0.8-0.3-1.1,0l-7.3,7.3c-0.3,0.3-0.3,0.8,0,1.1l0,0c0.3,0.3,0.8,0.3,1.1,0
		l7.3-7.3C14.5,6.6,14.5,6.1,14.2,5.8z"/>
	<path class="st0" d="M7.7,9C6.6,9,5.6,8.1,5.6,6.9s0.9-2.1,2.1-2.1s2.1,1,2.1,2.1C9.8,8.1,8.9,9,7.7,9z M7.7,6.3
		C7.3,6.3,7,6.6,7,6.9s0.3,0.7,0.7,0.7c0.4,0,0.7-0.3,0.7-0.7C8.4,6.6,8.1,6.3,7.7,6.3z"/>
	<path class="st0" d="M12.3,11c1.2,0,2.1,0.9,2.1,2.1s-1,2.1-2.1,2.1c-1.2,0-2.1-1-2.1-2.1C10.2,11.9,11.2,11,12.3,11z M12.3,13.7
		c0.4,0,0.7-0.3,0.7-0.6c0-0.3-0.3-0.7-0.7-0.7c-0.4,0-0.7,0.3-0.7,0.7C11.7,13.4,11.9,13.7,12.3,13.7z"/>
</g>
</svg>
