<?xml version="1.0" encoding="utf-8"?>
<!-- Generator: Adobe Illustrator 27.5.0, SVG Export Plug-In . SVG Version: 6.00 Build 0)  -->
<svg version="1.1" id="Layer_1" xmlns="http://www.w3.org/2000/svg" xmlns:xlink="http://www.w3.org/1999/xlink" x="0px" y="0px"
	 viewBox="0 0 512 512" style="enable-background:new 0 0 512 512;" xml:space="preserve">
<style type="text/css">
	.st0{fill:#EDEDF0;}
	.st1{fill:#FF623E;}
</style>
<circle class="st0" cx="256" cy="256" r="256"/>
<path class="st1" d="M135.4,268.8c0.5-8.7,5.3-16.6,15-20.8c9.9-4.3,19.2-2.5,27.2,4.6c14.3,12.8,28.4,25.8,42.6,38.7
	c4.6,4.2,7.2,4.1,11.3-0.5c44.1-49.8,88.1-99.6,132.2-149.4c2.6-3,5.5-3.8,8.6-2.6c2.7,1.1,4.7,3.9,4.4,6.8
	c-0.2,1.6-0.9,3.2-1.8,4.6c-29.4,47.4-58.8,94.8-88.3,142.2c-14.2,22.9-28.5,45.8-42.7,68.7c-3.9,6.3-9.3,10.7-16.7,12
	c-9.1,1.7-16.7-1.2-22.5-8.3c-18.4-22.5-36.7-45-55.1-67.5c-2.8-3.5-5.7-6.9-8.5-10.4C137.2,282.3,135.3,276.8,135.4,268.8z"/>
</svg>
