<?xml version="1.0" encoding="UTF-8"?>
<svg id="Layer_1" data-name="Layer 1" xmlns="http://www.w3.org/2000/svg" viewBox="0 0 20 20">
  <defs>
    <style>
      .cls-1 {
        fill: #3d4152;
      }
    </style>
  </defs>
  <path class="cls-1" d="m9.96,1.8c1.52,0,2.76,1.24,2.76,2.76s-1.24,2.76-2.76,2.76-2.76-1.24-2.76-2.76,1.24-2.76,2.76-2.76M9.96,0C7.45,0,5.4,2.04,5.4,4.56s2.04,4.56,4.56,4.56,4.56-2.04,4.56-4.56S12.48,0,9.96,0h0Z"/>
  <path class="cls-1" d="m13.94,11.8c1.89,0,3.43,1.95,3.43,4.34v2.06H2.63v-1.55c0-2.67,1.73-4.85,3.87-4.85h7.44m0-1.8h-7.44c-3.13,0-5.67,2.98-5.67,6.65v3.35h18.34v-3.86c0-3.39-2.34-6.14-5.23-6.14h0Z"/>
</svg>