<?xml version="1.0" encoding="utf-8"?>
<!-- Generator: Adobe Illustrator 27.5.0, SVG Export Plug-In . SVG Version: 6.00 Build 0)  -->
<svg version="1.1" id="Layer_1" xmlns="http://www.w3.org/2000/svg" xmlns:xlink="http://www.w3.org/1999/xlink" x="0px" y="0px"
	 viewBox="0 0 2500 730" style="enable-background:new 0 0 2500 730;" xml:space="preserve">
<style type="text/css">
	.st0{fill:#EB5D2B;}
	.st1{fill:#FFFFFF;}
</style>
<g>
	<path class="st0" d="M311.3,23.2h297.9c106.5,0,192.9,86.3,192.9,192.9V514c0,106.5-86.3,192.9-192.9,192.9H311.3
		c-106.5,0-192.9-86.3-192.9-192.9V216C118.5,109.5,204.8,23.2,311.3,23.2z"/>
	<path class="st1" d="M454.6,610.3c-0.3-0.2-0.7-0.5-1-0.9c-5.9-7.3-42.5-53.2-79.7-112.2c-11.2-18.7-18.4-33.4-17.1-37.2
		c3.6-9.8,68.5-15.2,88.6-6.3c6.1,2.7,5.9,6.3,5.9,8.4c0,9-0.5,33.2-0.5,33.2c0,5,4,9,9,9s9-4,9-9.1l-0.1-60.3
		c0-5.3-5.7-6.5-6.7-6.7c-10.4-0.1-31.6-0.1-54.4-0.1c-50.2,0-61.4,2.1-70-3.5c-18.5-12-48.7-93.7-49.5-139.7
		c-1-64.8,37.3-121,91.3-148.8c22.5-11.4,48-17.8,74.9-17.8c85.4,0,155.7,64.6,165.1,147.8v0.2c1.7,20.1-108.8,24.4-130.6,18.5
		c-3.4-0.9-4.2-4.3-4.2-5.8c0-15.3-0.1-58.3-0.1-58.3c0-5-4-9-9-9s-9,4-9,9.1l0.2,79.3c0.1,5,4.3,6.3,5.5,6.5h68.5
		c36.6,0,52,4.2,62.1,12.1c6.8,5.2,9.4,15.2,7.1,28.1C589.6,461.7,459.6,604.3,454.6,610.3z"/>
	<g>
		<path class="st0" d="M1098.9,492.7c-20.4,0-40-2.5-58.7-7.6c-18.7-5-33.8-11.4-45.3-19.2l22.9-51.8c11,7,23.8,12.9,38.2,17.4
			s28.8,6.9,43.2,6.9c9.9,0,17.7-0.8,23.4-2.5c5.8-1.6,10-4,12.7-7s4.1-6.7,4.1-10.9c0-5.4-2.6-9.7-7.8-12.9
			c-5.2-3.2-11.9-5.9-20.3-8.1c-8.3-2.2-17.4-4.3-27.1-6.3s-19.7-4.6-29.8-7.9c-10.1-3.3-19.3-7.6-27.5-13
			c-8.2-5.4-14.9-12.4-19.9-21.1c-5.1-8.7-7.6-19.6-7.6-32.8c0-14.6,4-27.8,12-39.8s20.1-21.6,36.3-28.9
			c16.2-7.3,36.4-10.9,60.6-10.9c16.2,0,32.1,1.8,47.7,5.5c15.6,3.6,29.4,9.1,41.4,16.4l-21.1,51.4c-11.7-6.6-23.4-11.4-34.9-14.4
			s-22.7-4.6-33.5-4.6c-9.6,0-17.4,1.1-23.3,3.2s-10.1,4.8-12.7,8.1c-2.6,3.3-3.9,6.8-3.9,10.6c0,5.6,2.6,10,7.8,13.2
			c5.2,3.2,11.9,5.8,20.1,7.8s17.3,4.1,27.3,6.2s19.9,4.8,29.8,7.9c9.9,3.2,19,7.4,27.3,12.7c8.3,5.3,15.1,12.2,20.3,20.8
			c5.2,8.6,7.8,19.3,7.8,32.2c0,14.3-4.1,27.5-12.2,39.6s-20.3,21.8-36.5,29.1C1143.6,489.1,1123.3,492.7,1098.9,492.7z"/>
		<path class="st0" d="M1282.1,487.8l-67.3-191.3h63.1l53.9,160.3h-30.6l56.7-160.3h56.7l54.3,160.3H1439l55.7-160.3h58.8l-68,191.3
			h-64.8l-45.4-132.1h19.4l-47.2,132.1H1282.1z"/>
		<path class="st0" d="M1607.2,275.7c-12.5,0-22.4-3.4-29.8-10.2c-7.4-6.8-11.1-15.3-11.1-25.4c0-10.1,3.7-18.5,11.1-25.2
			s17.3-10,29.8-10c12.2,0,22.1,3.2,29.6,9.5s11.3,14.4,11.3,24.3c0,10.6-3.7,19.4-11.1,26.4
			C1629.6,272.2,1619.7,275.7,1607.2,275.7z M1573.8,487.8V296.5h66.9v191.3H1573.8z"/>
		<path class="st0" d="M1765.4,477.9c-16.7,0-32.1-3.8-46.3-11.4c-14.2-7.6-25.6-18.3-34.2-32.1c-8.6-13.7-12.9-30-12.9-48.8
			s4.3-35.1,12.9-49s20-24.5,34.2-32.1c14.2-7.5,29.6-11.3,46.3-11.3c16.4,0,30.4,3.3,41.9,9.9s20.3,16.7,26.2,30.5
			c6,13.7,9,31.1,9,52s-3,38.2-9,52c-6,13.7-14.7,23.9-26.2,30.5C1795.8,474.6,1781.8,477.9,1765.4,477.9z M1777.4,559.3
			c-18.3,0-35.8-2.1-52.5-6.3s-30.8-10.5-42.3-18.7l24.3-46.5c8,6.1,17.9,11,29.8,14.6s23.5,5.5,35.1,5.5c17.8,0,30.7-3.9,38.6-11.8
			s11.8-19.3,11.8-34.3v-22.2l3.5-53.9v-53.5v-35.6h63.4V453c0,36.2-9.7,62.9-29.1,80.3C1840.6,550.6,1813.1,559.3,1777.4,559.3z
			 M1781.6,424.7c8.2,0,15.4-1.6,21.5-4.9s11-7.9,14.6-13.7c3.6-5.9,5.5-12.7,5.5-20.4c0-7.8-1.8-14.6-5.5-20.4
			c-3.6-5.9-8.5-10.4-14.6-13.6s-13.3-4.8-21.5-4.8c-8,0-15.1,1.6-21.3,4.8c-6.2,3.2-11.2,7.7-15,13.6s-5.6,12.7-5.6,20.4
			c0,7.7,1.9,14.6,5.6,20.4c3.8,5.9,8.7,10.5,15,13.7C1766.5,423.1,1773.6,424.7,1781.6,424.7z"/>
		<path class="st0" d="M2013.8,477.9c-16.7,0-32.1-3.8-46.3-11.4c-14.2-7.6-25.6-18.3-34.2-32.1c-8.6-13.7-12.9-30-12.9-48.8
			s4.3-35.1,12.9-49s20-24.5,34.2-32.1c14.2-7.5,29.6-11.3,46.3-11.3c16.4,0,30.4,3.3,41.9,9.9c11.5,6.6,20.3,16.7,26.2,30.5
			c6,13.7,9,31.1,9,52s-3,38.2-9,52c-6,13.7-14.7,23.9-26.2,30.5C2044.2,474.6,2030.2,477.9,2013.8,477.9z M2025.7,559.3
			c-18.3,0-35.8-2.1-52.5-6.3s-30.8-10.5-42.3-18.7l24.3-46.5c8,6.1,17.9,11,29.8,14.6s23.5,5.5,35.1,5.5c17.8,0,30.7-3.9,38.6-11.8
			s11.8-19.3,11.8-34.3v-22.2l3.5-53.9v-53.5v-35.6h63.4V453c0,36.2-9.7,62.9-29.1,80.3C2089,550.6,2061.4,559.3,2025.7,559.3z
			 M2030,424.7c8.2,0,15.4-1.6,21.5-4.9c6.1-3.3,11-7.9,14.6-13.7c3.6-5.9,5.5-12.7,5.5-20.4c0-7.8-1.8-14.6-5.5-20.4
			c-3.6-5.9-8.5-10.4-14.6-13.6c-6.1-3.2-13.3-4.8-21.5-4.8c-8,0-15.1,1.6-21.3,4.8c-6.2,3.2-11.2,7.7-15,13.6s-5.6,12.7-5.6,20.4
			c0,7.7,1.9,14.6,5.6,20.4c3.8,5.9,8.7,10.5,15,13.7C2014.9,423.1,2022,424.7,2030,424.7z"/>
		<path class="st0" d="M2239.6,495.9l-84.2-199.4h68.7l62,154.7L2239.6,495.9z M2213.5,559.3c-9.9,0-20-1.6-30.3-4.8
			s-18.8-7.3-25.4-12.5l23.6-46.5c4,3.3,8.6,5.9,13.9,7.9c5.3,2,10.5,3,15.7,3c7.5,0,13.3-1.6,17.4-4.9c4.1-3.3,7.7-8.6,10.7-15.9
			l8.8-21.8l5.3-6.7l64.8-160.6h63.4l-82.1,199c-6.8,16.4-14.4,29.3-22.9,38.6s-17.9,15.8-28.4,19.6
			C2237.7,557.4,2226.2,559.3,2213.5,559.3z"/>
	</g>
</g>
</svg>
